<svg version="1.1" id="Layer_1" xmlns="http://www.w3.org/2000/svg" xmlns:xlink="http://www.w3.org/1999/xlink" x="0px" y="0px"
	 width="100%" viewBox="0 0 343 147" enable-background="new 0 0 343 147" xml:space="preserve">
<path fill="#FEFEFE" opacity="1.000000" stroke="none" 
	d="
M243.000000,148.000000 
	C162.000015,148.000000 81.500023,148.000000 1.000022,148.000000 
	C1.000014,99.000015 1.000014,50.000031 1.000007,1.000035 
	C115.333305,1.000023 229.666611,1.000023 343.999939,1.000012 
	C343.999939,49.999966 343.999939,98.999931 343.999969,147.999939 
	C310.500000,148.000000 277.000000,148.000000 243.000000,148.000000 
M200.757980,86.364456 
	C201.933273,87.229408 203.108551,88.094353 204.283844,88.959297 
	C204.927902,87.620949 206.058334,86.307129 206.127304,84.939781 
	C206.360107,80.323799 206.426804,75.673615 206.094833,71.069847 
	C205.987411,69.579964 204.456284,68.192741 203.576401,66.758553 
	C202.713135,68.236351 201.329071,69.634155 201.087418,71.207443 
	C200.445465,75.386795 200.296417,79.641853 199.308701,84.177948 
	C193.858276,87.097977 191.167206,85.634460 191.059875,79.643250 
	C191.000412,76.323715 191.252914,72.980446 190.913437,69.694504 
	C190.803284,68.628288 189.260849,67.710037 188.373535,66.724106 
	C187.514511,67.694687 186.002243,68.609970 185.914566,69.645828 
	C185.607574,73.272667 185.218628,77.063904 185.966873,80.555702 
	C186.590317,83.465202 188.118988,87.122261 190.415451,88.499527 
	C193.462738,90.327095 197.510330,89.746941 200.757980,86.364456 
M247.499512,37.176174 
	C245.899277,32.662449 242.846756,29.979298 237.949753,29.709618 
	C230.821411,29.317060 226.443649,33.949574 226.407883,42.192432 
	C226.334869,59.022049 226.385788,75.852203 226.385696,92.682137 
	C226.385681,94.430748 226.385681,96.179352 226.385681,98.183762 
	C216.403458,98.183762 207.093445,98.224274 197.784149,98.160057 
	C194.839386,98.139755 192.931870,98.754143 193.272064,102.351410 
	C194.190582,112.063904 202.696350,119.550652 212.765350,119.337936 
	C222.613785,119.129875 230.675888,111.528633 231.079971,101.827110 
	C231.294754,96.670250 231.133820,91.497559 231.134811,86.332008 
	C231.137680,71.335037 231.154282,56.338036 231.124619,41.341129 
	C231.117340,37.665451 232.770264,35.076736 236.338135,34.474781 
	C239.966232,33.862667 242.155624,35.847931 243.258621,39.418911 
	C243.637344,40.645073 245.191681,41.508114 246.208954,42.537037 
	C246.727097,40.989857 247.245239,39.442677 247.499512,37.176174 
M57.989426,76.764732 
	C56.796158,74.833916 55.602886,72.903091 54.491741,71.105164 
	C56.625397,69.795593 58.592793,66.399437 56.865627,62.084492 
	C55.044983,57.535999 50.892330,56.811104 46.490849,56.919979 
	C43.500317,56.993950 40.501694,57.035965 37.515396,56.900414 
	C34.692932,56.772289 33.633404,58.041882 33.678993,60.751579 
	C33.757286,65.405083 33.698383,70.060875 33.698288,74.715706 
	C33.697964,90.417480 33.698162,90.417450 49.488869,89.022079 
	C49.819874,88.992828 50.154926,88.989929 50.481808,88.936363 
	C56.682659,87.920265 59.390594,83.899765 57.989426,76.764732 
M309.023132,87.928436 
	C309.937256,86.978760 311.036713,86.147598 311.733124,85.058670 
	C314.598022,80.579079 313.834290,72.171524 310.362793,68.725708 
	C307.030548,65.418076 302.460571,65.564262 297.638733,68.938278 
	C295.978302,68.179253 294.529785,67.188347 292.979706,66.989777 
	C292.449005,66.921791 291.103973,68.828072 291.083801,69.851128 
	C290.923859,77.974365 290.883514,86.105377 291.123718,94.224625 
	C291.155945,95.314102 292.959869,96.351173 293.943390,97.412521 
	C294.783661,96.256195 296.138885,95.186935 296.352295,93.924622 
	C296.744415,91.605278 296.464142,89.172249 296.464142,86.786606 
	C296.706512,87.291183 296.948883,87.795769 297.191254,88.300346 
	C300.896942,88.300346 304.602661,88.300346 309.023132,87.928436 
M241.191299,87.454582 
	C248.789383,91.604218 256.812439,88.319214 258.988342,82.676437 
	C261.160248,77.044098 259.269135,70.639740 254.445282,67.856781 
	C249.366165,64.926552 242.110031,66.205139 238.625122,70.526878 
	C235.470016,74.439583 235.062683,83.097176 241.191299,87.454582 
M79.288300,88.862228 
	C81.426682,87.646141 84.994331,87.483589 83.583908,83.353432 
	C72.587433,86.375626 70.062050,85.578926 69.301109,78.535980 
	C74.572945,78.535980 79.799324,78.535980 84.958214,78.535980 
	C85.632904,71.695923 83.185997,67.971138 77.541428,66.667747 
	C71.575516,65.290138 65.944214,68.310883 64.016663,73.922691 
	C60.882156,83.048378 67.257736,89.688072 79.288300,88.862228 
M93.510773,88.992332 
	C96.823181,88.569313 100.135597,88.146294 103.793594,87.679138 
	C104.501228,87.924721 105.901825,88.843048 107.149330,88.668327 
	C107.811111,88.575645 108.602379,86.602455 108.651482,85.449051 
	C108.820854,81.470528 108.861000,77.468819 108.620552,73.495895 
	C108.411835,70.047287 106.642242,66.977226 103.028137,66.938133 
	C99.099564,66.895645 95.147827,68.049835 91.239319,68.845070 
	C90.918297,68.910378 90.851303,70.224274 90.666283,70.958031 
	C91.505905,71.153275 92.387543,71.615341 93.176834,71.491020 
	C95.123611,71.184395 97.011154,70.322876 98.953400,70.208382 
	C101.837769,70.038361 103.688362,71.366470 103.450996,74.801079 
	C100.647186,75.164894 97.619888,74.936844 95.206543,76.045387 
	C92.790466,77.155182 90.154106,79.230652 89.124710,81.552490 
	C87.803314,84.532928 89.652946,87.296082 93.510773,88.992332 
M170.665421,70.263298 
	C170.837479,75.034821 170.799286,79.828598 171.300430,84.565300 
	C171.466431,86.134346 173.020706,87.556503 173.940247,89.045815 
	C174.899612,87.601562 176.572357,86.211159 176.686172,84.703087 
	C177.044785,79.952080 176.818329,75.156921 176.818329,71.148888 
	C178.876602,69.977608 180.279770,69.179123 181.682938,68.380638 
	C180.134201,67.489120 178.585464,66.597603 176.886688,65.619728 
	C177.059647,63.248451 176.153076,60.187927 180.497894,60.224197 
	C181.339661,60.231220 182.189957,59.217308 183.036316,58.674343 
	C182.213043,58.022755 181.485214,57.048622 180.550934,56.772160 
	C174.677414,55.034122 172.221970,57.446091 170.936462,65.505928 
	C169.400558,66.700531 168.230850,67.610306 167.061157,68.520096 
	C167.976044,69.050507 168.890930,69.580917 170.665421,70.263298 
M120.037781,70.773270 
	C119.016029,69.442650 117.994278,68.112030 116.972527,66.781410 
	C116.245697,68.200447 115.011414,69.578278 114.892204,71.046638 
	C114.596909,74.683952 114.669640,78.369934 114.856812,82.022919 
	C115.095955,86.690559 117.994690,89.467720 122.628098,89.082695 
	C125.068802,88.879875 127.422836,87.634033 129.150452,87.074654 
	C130.780045,87.781754 132.214752,88.934853 133.433578,88.739723 
	C134.198959,88.617188 135.094299,86.489601 135.146500,85.229073 
	C135.346085,80.409859 135.409180,75.566307 135.113556,70.757027 
	C135.028580,69.374634 133.566086,68.076904 132.735184,66.740356 
	C131.824585,68.019745 130.293076,69.223915 130.127136,70.593521 
	C129.729431,73.876167 130.124969,77.246094 129.916245,80.562927 
	C129.706665,83.893265 127.559929,85.806877 124.350128,85.735245 
	C121.052742,85.661652 119.958931,83.277840 120.026665,80.206047 
	C120.089027,77.377548 120.038673,74.546555 120.037781,70.773270 
M270.021973,69.856964 
	C269.029602,68.831039 268.037231,67.805122 267.044891,66.779205 
	C266.295502,68.013924 265.067932,69.186447 264.897522,70.496475 
	C264.556915,73.114845 264.830658,75.809143 264.786926,78.471046 
	C264.723236,82.345978 264.317474,86.942215 268.796753,88.196045 
	C272.138916,89.131554 276.058167,88.005363 280.743500,87.739182 
	C280.722443,87.729591 282.120087,88.878784 283.379486,88.743263 
	C284.103241,88.665398 285.071564,86.524315 285.121216,85.279732 
	C285.320221,80.295296 285.359924,75.289742 285.090759,70.311874 
	C285.024445,69.085297 283.571533,67.933701 282.756012,66.747627 
	C281.825745,68.005898 280.255798,69.186707 280.092224,70.537811 
	C279.694946,73.818726 280.631866,77.383766 279.712128,80.436974 
	C279.068787,82.572662 276.461487,85.153687 274.348511,85.563904 
	C271.266602,86.162224 269.962585,83.353836 270.014526,80.269577 
	C270.067780,77.108635 270.024811,73.946075 270.021973,69.856964 
M152.286743,66.784607 
	C148.126007,67.376198 148.340729,64.685234 148.330643,61.833252 
	C148.327011,60.803371 147.456589,59.582504 146.627243,58.850319 
	C146.319046,58.578239 144.276398,59.406277 144.248825,59.815220 
	C143.986679,63.700905 143.366409,67.261589 137.878220,68.175087 
	C138.253464,68.520088 138.628708,68.865082 139.003952,69.210083 
	C140.272232,69.724228 141.540527,70.238373 143.072037,70.859215 
	C143.072037,74.634590 142.931122,78.452278 143.105087,82.255569 
	C143.365341,87.945580 146.790100,90.504295 152.096222,89.011871 
	C153.028488,88.749657 153.732086,87.674393 154.541275,86.974602 
	C153.766785,86.325706 153.081284,85.469223 152.192032,85.088081 
	C151.354263,84.729019 150.301834,84.870819 148.893066,84.755318 
	C148.893066,79.878738 148.893066,75.191399 148.893066,70.504066 
	C149.374695,70.795242 149.856323,71.086418 150.337936,71.377594 
	C151.233795,69.973618 152.129654,68.569633 152.286743,66.784607 
M212.351212,82.232086 
	C212.351227,82.730095 212.184662,83.308708 212.379929,83.712250 
	C213.256027,85.522964 214.235016,87.283897 215.176895,89.062790 
	C216.107254,87.243835 217.758072,85.456779 217.840271,83.600281 
	C218.155731,76.476135 218.159653,69.320946 217.834137,62.197708 
	C217.752045,60.401394 216.015945,58.680672 215.039932,56.925213 
	C214.143738,58.574425 212.553879,60.190956 212.474380,61.878639 
	C212.170074,68.338409 212.351273,74.821053 212.351212,82.232086 
M161.540817,66.836998 
	C160.394669,67.498238 158.286469,68.115372 158.253815,68.827667 
	C157.980637,74.786537 157.986298,80.766655 158.204971,86.729477 
	C158.234070,87.523521 159.849442,88.672768 160.877823,88.864128 
	C161.510178,88.981781 163.112411,87.582314 163.102631,86.880455 
	C163.011230,80.321449 162.664978,73.765991 161.540817,66.836998 
M158.666504,61.207458 
	C160.425903,60.652313 162.185318,60.097172 163.944717,59.542027 
	C162.991394,58.622677 162.123001,57.048668 161.068176,56.911839 
	C158.355408,56.559937 156.929382,57.860416 158.666504,61.207458 
z"/>
<path fill="#121212" opacity="1.000000" stroke="none" 
	d="
M247.631439,37.535835 
	C247.245239,39.442677 246.727097,40.989857 246.208954,42.537041 
	C245.191681,41.508114 243.637344,40.645073 243.258621,39.418911 
	C242.155624,35.847931 239.966232,33.862667 236.338135,34.474781 
	C232.770264,35.076736 231.117340,37.665451 231.124619,41.341129 
	C231.154282,56.338036 231.137680,71.335037 231.134811,86.332008 
	C231.133820,91.497559 231.294754,96.670250 231.079971,101.827110 
	C230.675888,111.528633 222.613785,119.129875 212.765350,119.337936 
	C202.696350,119.550652 194.190582,112.063904 193.272064,102.351410 
	C192.931870,98.754143 194.839386,98.139755 197.784149,98.160057 
	C207.093445,98.224274 216.403458,98.183762 226.385681,98.183762 
	C226.385681,96.179352 226.385681,94.430748 226.385696,92.682137 
	C226.385788,75.852203 226.334869,59.022049 226.407883,42.192432 
	C226.443649,33.949574 230.821411,29.317060 237.949753,29.709618 
	C242.846756,29.979298 245.899277,32.662449 247.631439,37.535835 
M206.416840,113.422310 
	C216.254013,116.521820 223.735611,112.630943 225.738281,103.242996 
	C216.729187,103.242996 207.754013,103.242996 198.362289,103.242996 
	C199.481583,107.897896 201.911728,110.987251 206.416840,113.422310 
z"/>
<path fill="#050505" opacity="1.000000" stroke="none" 
	d="
M58.089195,77.133324 
	C59.390594,83.899765 56.682659,87.920265 50.481808,88.936363 
	C50.154926,88.989929 49.819874,88.992828 49.488869,89.022079 
	C33.698162,90.417450 33.697964,90.417480 33.698288,74.715706 
	C33.698383,70.060875 33.757286,65.405083 33.678993,60.751579 
	C33.633404,58.041882 34.692932,56.772289 37.515396,56.900414 
	C40.501694,57.035965 43.500317,56.993950 46.490849,56.919979 
	C50.892330,56.811104 55.044983,57.535999 56.865627,62.084492 
	C58.592793,66.399437 56.625397,69.795593 54.491741,71.105164 
	C55.602886,72.903091 56.796158,74.833916 58.089195,77.133324 
M49.984177,75.197243 
	C46.625065,74.759682 43.265953,74.322121 39.692726,73.856674 
	C39.692726,78.065186 39.692726,81.426727 39.692726,84.969086 
	C42.194687,84.969086 44.452240,85.380890 46.463928,84.854004 
	C48.501232,84.320389 51.187397,83.277077 51.936356,81.681236 
	C52.636154,80.190155 51.166924,77.681099 49.984177,75.197243 
M40.806496,60.991440 
	C40.171707,64.171555 39.536919,67.351662 38.759224,71.247696 
	C42.745441,70.852745 45.600376,71.175835 47.832878,70.147568 
	C49.474228,69.391571 51.210766,66.861092 51.199970,65.132027 
	C51.191483,63.771877 48.780083,61.976284 47.063087,61.211975 
	C45.539509,60.533764 43.502590,61.008747 40.806496,60.991440 
z"/>
<path fill="#090909" opacity="1.000000" stroke="none" 
	d="
M308.665741,88.114395 
	C304.602661,88.300346 300.896942,88.300346 297.191254,88.300346 
	C296.948883,87.795769 296.706512,87.291183 296.464142,86.786606 
	C296.464142,89.172249 296.744415,91.605278 296.352295,93.924622 
	C296.138885,95.186935 294.783661,96.256195 293.943390,97.412521 
	C292.959869,96.351173 291.155945,95.314102 291.123718,94.224625 
	C290.883514,86.105377 290.923859,77.974365 291.083801,69.851128 
	C291.103973,68.828072 292.449005,66.921791 292.979706,66.989777 
	C294.529785,67.188347 295.978302,68.179253 297.638733,68.938278 
	C302.460571,65.564262 307.030548,65.418076 310.362793,68.725708 
	C313.834290,72.171524 314.598022,80.579079 311.733124,85.058670 
	C311.036713,86.147598 309.937256,86.978760 308.665741,88.114395 
M301.665588,69.966705 
	C298.201233,70.353477 296.541443,72.740913 296.765045,75.763321 
	C296.982697,78.704979 297.721863,81.968826 299.370087,84.279396 
	C300.105469,85.310310 304.298676,85.240242 305.760590,84.134117 
	C310.353058,80.659348 308.077332,71.686165 301.665588,69.966705 
z"/>
<path fill="#0C0C0C" opacity="1.000000" stroke="none" 
	d="
M240.879059,87.245132 
	C235.062683,83.097176 235.470016,74.439583 238.625122,70.526878 
	C242.110031,66.205139 249.366165,64.926552 254.445282,67.856781 
	C259.269135,70.639740 261.160248,77.044098 258.988342,82.676437 
	C256.812439,88.319214 248.789383,91.604218 240.879059,87.245132 
M242.111938,79.957916 
	C242.909729,83.345245 244.639328,86.011230 248.464111,85.741531 
	C251.928436,85.497253 253.653061,83.020630 253.949692,79.659988 
	C254.080597,78.176987 254.503922,76.228912 253.774124,75.262489 
	C252.231140,73.219269 250.148117,70.540817 248.036896,70.298492 
	C246.336365,70.103317 243.993149,72.883438 242.479858,74.778519 
	C241.713379,75.738388 242.151657,77.660324 242.111938,79.957916 
z"/>
<path fill="#121212" opacity="1.000000" stroke="none" 
	d="
M78.906799,88.947281 
	C67.257736,89.688072 60.882156,83.048378 64.016663,73.922691 
	C65.944214,68.310883 71.575516,65.290138 77.541428,66.667747 
	C83.185997,67.971138 85.632904,71.695923 84.958214,78.535980 
	C79.799324,78.535980 74.572945,78.535980 69.301109,78.535980 
	C70.062050,85.578926 72.587433,86.375626 83.583908,83.353432 
	C84.994331,87.483589 81.426682,87.646141 78.906799,88.947281 
M80.353722,75.672585 
	C80.563782,71.987747 78.494530,70.178467 75.133293,69.998520 
	C71.405792,69.798988 69.575790,72.004143 69.056572,75.892715 
	C72.731804,75.892715 76.151634,75.892715 80.353722,75.672585 
z"/>
<path fill="#121212" opacity="1.000000" stroke="none" 
	d="
M93.151001,88.865982 
	C89.652946,87.296082 87.803314,84.532928 89.124710,81.552490 
	C90.154106,79.230652 92.790466,77.155182 95.206543,76.045387 
	C97.619888,74.936844 100.647186,75.164894 103.450996,74.801079 
	C103.688362,71.366470 101.837769,70.038361 98.953400,70.208382 
	C97.011154,70.322876 95.123611,71.184395 93.176834,71.491020 
	C92.387543,71.615341 91.505905,71.153275 90.666275,70.958023 
	C90.851303,70.224274 90.918297,68.910378 91.239319,68.845070 
	C95.147827,68.049835 99.099564,66.895645 103.028137,66.938133 
	C106.642242,66.977226 108.411835,70.047287 108.620552,73.495895 
	C108.861000,77.468819 108.820854,81.470528 108.651482,85.449051 
	C108.602379,86.602455 107.811111,88.575645 107.149330,88.668327 
	C105.901825,88.843048 104.501228,87.924721 103.793594,87.679138 
	C100.135597,88.146294 96.823181,88.569313 93.151001,88.865982 
M99.882446,85.722404 
	C101.392426,83.612930 102.902412,81.503464 104.412392,79.393990 
	C103.939240,78.953819 103.466095,78.513649 102.992943,78.073479 
	C99.741821,78.899765 95.061081,77.088402 94.075180,82.303734 
	C93.468536,85.512878 96.390343,86.115494 99.882446,85.722404 
z"/>
<path fill="#131313" opacity="1.000000" stroke="none" 
	d="
M170.235626,70.187317 
	C168.890930,69.580917 167.976044,69.050507 167.061157,68.520096 
	C168.230850,67.610306 169.400558,66.700531 170.936462,65.505928 
	C172.221970,57.446091 174.677414,55.034122 180.550934,56.772160 
	C181.485214,57.048622 182.213043,58.022755 183.036316,58.674339 
	C182.189957,59.217308 181.339661,60.231220 180.497894,60.224197 
	C176.153076,60.187927 177.059647,63.248451 176.886688,65.619728 
	C178.585464,66.597603 180.134201,67.489120 181.682938,68.380638 
	C180.279770,69.179123 178.876602,69.977608 176.818329,71.148888 
	C176.818329,75.156921 177.044785,79.952080 176.686172,84.703087 
	C176.572357,86.211159 174.899612,87.601562 173.940247,89.045822 
	C173.020706,87.556503 171.466431,86.134346 171.300430,84.565300 
	C170.799286,79.828598 170.837479,75.034821 170.235626,70.187317 
z"/>
<path fill="#050505" opacity="1.000000" stroke="none" 
	d="
M120.037872,71.244965 
	C120.038673,74.546555 120.089027,77.377548 120.026665,80.206047 
	C119.958931,83.277840 121.052742,85.661652 124.350128,85.735245 
	C127.559929,85.806877 129.706665,83.893265 129.916245,80.562927 
	C130.124969,77.246094 129.729431,73.876167 130.127136,70.593521 
	C130.293076,69.223915 131.824585,68.019745 132.735184,66.740356 
	C133.566086,68.076904 135.028580,69.374634 135.113556,70.757027 
	C135.409180,75.566307 135.346085,80.409859 135.146500,85.229073 
	C135.094299,86.489601 134.198959,88.617188 133.433578,88.739723 
	C132.214752,88.934853 130.780045,87.781754 129.150452,87.074654 
	C127.422836,87.634033 125.068802,88.879875 122.628098,89.082695 
	C117.994690,89.467720 115.095955,86.690559 114.856812,82.022919 
	C114.669640,78.369934 114.596909,74.683952 114.892204,71.046638 
	C115.011414,69.578278 116.245697,68.200447 116.972527,66.781410 
	C117.994278,68.112030 119.016029,69.442650 120.037872,71.244965 
z"/>
<path fill="#040404" opacity="1.000000" stroke="none" 
	d="
M270.022949,70.320595 
	C270.024811,73.946075 270.067780,77.108635 270.014526,80.269577 
	C269.962585,83.353836 271.266602,86.162224 274.348511,85.563904 
	C276.461487,85.153687 279.068787,82.572662 279.712128,80.436974 
	C280.631866,77.383766 279.694946,73.818726 280.092224,70.537811 
	C280.255798,69.186707 281.825745,68.005898 282.756012,66.747627 
	C283.571533,67.933701 285.024445,69.085297 285.090759,70.311874 
	C285.359924,75.289742 285.320221,80.295296 285.121216,85.279732 
	C285.071564,86.524315 284.103241,88.665398 283.379486,88.743263 
	C282.120087,88.878784 280.722443,87.729591 280.743500,87.739182 
	C276.058167,88.005363 272.138916,89.131554 268.796753,88.196045 
	C264.317474,86.942215 264.723236,82.345978 264.786926,78.471046 
	C264.830658,75.809143 264.556915,73.114845 264.897522,70.496475 
	C265.067932,69.186447 266.295502,68.013924 267.044891,66.779205 
	C268.037231,67.805122 269.029602,68.831039 270.022949,70.320595 
z"/>
<path fill="#090909" opacity="1.000000" stroke="none" 
	d="
M152.656128,66.975128 
	C152.129654,68.569633 151.233795,69.973618 150.337936,71.377594 
	C149.856323,71.086418 149.374695,70.795242 148.893066,70.504066 
	C148.893066,75.191399 148.893066,79.878738 148.893066,84.755318 
	C150.301834,84.870819 151.354263,84.729019 152.192032,85.088081 
	C153.081284,85.469223 153.766785,86.325706 154.541275,86.974609 
	C153.732086,87.674393 153.028488,88.749657 152.096222,89.011871 
	C146.790100,90.504295 143.365341,87.945580 143.105087,82.255569 
	C142.931122,78.452278 143.072037,74.634590 143.072037,70.859215 
	C141.540527,70.238373 140.272232,69.724228 139.003952,69.210083 
	C138.628708,68.865082 138.253464,68.520088 137.878220,68.175087 
	C143.366409,67.261589 143.986679,63.700905 144.248825,59.815220 
	C144.276398,59.406277 146.319046,58.578239 146.627243,58.850319 
	C147.456589,59.582504 148.327011,60.803371 148.330643,61.833252 
	C148.340729,64.685234 148.126007,67.376198 152.656128,66.975128 
z"/>
<path fill="#1B1B1B" opacity="1.000000" stroke="none" 
	d="
M212.351227,81.763626 
	C212.351273,74.821053 212.170074,68.338409 212.474380,61.878639 
	C212.553879,60.190956 214.143738,58.574425 215.039932,56.925217 
	C216.015945,58.680672 217.752045,60.401394 217.834137,62.197708 
	C218.159653,69.320946 218.155731,76.476135 217.840271,83.600281 
	C217.758072,85.456779 216.107254,87.243835 215.176895,89.062790 
	C214.235016,87.283897 213.256027,85.522964 212.379929,83.712250 
	C212.184662,83.308708 212.351227,82.730095 212.351227,81.763626 
z"/>
<path fill="#070707" opacity="1.000000" stroke="none" 
	d="
M200.057312,86.165443 
	C197.510330,89.746941 193.462738,90.327095 190.415451,88.499527 
	C188.118988,87.122261 186.590317,83.465202 185.966873,80.555702 
	C185.218628,77.063904 185.607574,73.272667 185.914566,69.645828 
	C186.002243,68.609970 187.514511,67.694687 188.373535,66.724106 
	C189.260849,67.710037 190.803284,68.628288 190.913437,69.694504 
	C191.252914,72.980446 191.000412,76.323715 191.059875,79.643250 
	C191.167206,85.634460 193.858276,87.097977 199.652252,84.405258 
	C200.016312,85.143524 200.036804,85.654488 200.057312,86.165443 
z"/>
<path fill="#010101" opacity="1.000000" stroke="none" 
	d="
M200.407654,86.264954 
	C200.036804,85.654488 200.016312,85.143524 199.973557,84.249687 
	C200.296417,79.641853 200.445465,75.386795 201.087418,71.207443 
	C201.329071,69.634155 202.713135,68.236351 203.576385,66.758560 
	C204.456284,68.192741 205.987411,69.579964 206.094833,71.069847 
	C206.426804,75.673615 206.360107,80.323799 206.127304,84.939781 
	C206.058334,86.307129 204.927902,87.620949 204.283844,88.959297 
	C203.108551,88.094353 201.933273,87.229408 200.407654,86.264954 
z"/>
<path fill="#070707" opacity="1.000000" stroke="none" 
	d="
M161.966644,67.023254 
	C162.664978,73.765991 163.011230,80.321449 163.102631,86.880455 
	C163.112411,87.582314 161.510178,88.981781 160.877823,88.864128 
	C159.849442,88.672768 158.234070,87.523521 158.204971,86.729477 
	C157.986298,80.766655 157.980637,74.786537 158.253815,68.827667 
	C158.286469,68.115372 160.394669,67.498238 161.966644,67.023254 
z"/>
<path fill="#161616" opacity="1.000000" stroke="none" 
	d="
M158.383698,61.007721 
	C156.929382,57.860416 158.355408,56.559937 161.068176,56.911839 
	C162.123001,57.048668 162.991394,58.622677 163.944717,59.542027 
	C162.185318,60.097172 160.425903,60.652313 158.383698,61.007721 
z"/>
<path fill="#F8F8F8" opacity="1.000000" stroke="none" 
	d="
M206.085510,113.231232 
	C201.911728,110.987251 199.481583,107.897896 198.362289,103.242996 
	C207.754013,103.242996 216.729187,103.242996 225.738281,103.242996 
	C223.735611,112.630943 216.254013,116.521820 206.085510,113.231232 
z"/>
<path fill="#EBEBEB" opacity="1.000000" stroke="none" 
	d="
M50.318268,75.408661 
	C51.166924,77.681099 52.636154,80.190155 51.936356,81.681236 
	C51.187397,83.277077 48.501232,84.320389 46.463928,84.854004 
	C44.452240,85.380890 42.194687,84.969086 39.692726,84.969086 
	C39.692726,81.426727 39.692726,78.065186 39.692726,73.856674 
	C43.265953,74.322121 46.625065,74.759682 50.318268,75.408661 
z"/>
<path fill="#ECECEC" opacity="1.000000" stroke="none" 
	d="
M41.249382,60.983063 
	C43.502590,61.008747 45.539509,60.533764 47.063087,61.211975 
	C48.780083,61.976284 51.191483,63.771877 51.199970,65.132027 
	C51.210766,66.861092 49.474228,69.391571 47.832878,70.147568 
	C45.600376,71.175835 42.745441,70.852745 38.759224,71.247696 
	C39.536919,67.351662 40.171707,64.171555 41.249382,60.983063 
z"/>
<path fill="#F4F4F4" opacity="1.000000" stroke="none" 
	d="
M302.068451,69.939034 
	C308.077332,71.686165 310.353058,80.659348 305.760590,84.134117 
	C304.298676,85.240242 300.105469,85.310310 299.370087,84.279396 
	C297.721863,81.968826 296.982697,78.704979 296.765045,75.763321 
	C296.541443,72.740913 298.201233,70.353477 302.068451,69.939034 
z"/>
<path fill="#F6F6F6" opacity="1.000000" stroke="none" 
	d="
M242.078583,79.552605 
	C242.151657,77.660324 241.713379,75.738388 242.479858,74.778519 
	C243.993149,72.883438 246.336365,70.103317 248.036896,70.298492 
	C250.148117,70.540817 252.231140,73.219269 253.774124,75.262489 
	C254.503922,76.228912 254.080597,78.176987 253.949692,79.659988 
	C253.653061,83.020630 251.928436,85.497253 248.464111,85.741531 
	C244.639328,86.011230 242.909729,83.345245 242.078583,79.552605 
z"/>
<path fill="#EAEAEA" opacity="1.000000" stroke="none" 
	d="
M79.962585,75.782654 
	C76.151634,75.892715 72.731804,75.892715 69.056572,75.892715 
	C69.575790,72.004143 71.405792,69.798988 75.133293,69.998520 
	C78.494530,70.178467 80.563782,71.987747 79.962585,75.782654 
z"/>
<path fill="#ECECEC" opacity="1.000000" stroke="none" 
	d="
M99.498680,85.812737 
	C96.390343,86.115494 93.468536,85.512878 94.075180,82.303734 
	C95.061081,77.088402 99.741821,78.899765 102.992943,78.073479 
	C103.466095,78.513649 103.939240,78.953819 104.412392,79.393990 
	C102.902412,81.503464 101.392426,83.612930 99.498680,85.812737 
z"/>
</svg>